<?xml version="1.0" encoding="UTF-8" standalone="no"?>
<svg width="289px" height="106px" viewBox="0 0 289 106" version="1.1" xmlns="http://www.w3.org/2000/svg" xmlns:xlink="http://www.w3.org/1999/xlink" xmlns:sketch="http://www.bohemiancoding.com/sketch/ns">
    <title>limajs</title>
    <description>Created with Sketch (http://www.bohemiancoding.com/sketch)</description>
    <defs></defs>
    <g id="Page-1" stroke="none" stroke-width="1" fill="none" fill-rule="evenodd" sketch:type="MSPage">
        <path d="M144.136833,0.714843745 C184.661247,0.714843745 270.120354,5.01278591 270.120354,5.01278591 L280.486931,10.5293877 L282.221306,22.7149346 L279.688103,31.0616142 L284.333611,39.4248955 L280.87365,47.5870049 L281.632439,67.0791924 L270.120354,76.857666 C270.120354,76.857666 207.86351,81.5429687 144.136833,81.3613281 C80.4101562,81.1796875 17.9873048,76.6013184 17.9873048,76.6013184 L9.27111063,71.7002861 L5.24669657,65.1993096 L8.77111063,49.182708 L3.94005594,40.1426689 L8.27111063,33.8926689 L7.09337626,18.0450127 C7.09337626,18.0450127 5.60569055,9.49253097 7.09337626,7.54891893 C8.93074644,5.14845544 18.9248048,5.01278591 18.9248048,5.01278591 C56.7797147,0.935637469 103.054988,0.714843745 144.136833,0.714843745 Z M144.136833,0.714843745" id="Path-40" fill="#FBE448" sketch:type="MSShapeGroup"></path>
        <path d="M35.0558503,66.8217906 L61.3824351,66.8217906 L61.3824351,70.2352226 L31.0538956,70.2352226 L31.0538956,14.717909 L35.0558503,14.717909 L35.0558503,66.8217906 Z M74.1337615,31.1965462 L74.1337615,70.2352226 L70.4064507,70.2352226 L70.4064507,31.1965462 L74.1337615,31.1965462 Z M75.4873639,24.05336 C75.2911886,24.4587888 75.0361647,24.818438 74.7222843,25.1323183 C74.4084039,25.4461987 74.0422156,25.6946836 73.6237085,25.8777805 C73.2052013,26.0608774 72.7605441,26.1524245 72.2897235,26.1524245 C71.818903,26.1524245 71.3742458,26.0608774 70.9557386,25.8777805 C70.5372315,25.6946836 70.1710432,25.4461987 69.8571628,25.1323183 C69.5432824,24.818438 69.2947975,24.4587888 69.1117006,24.05336 C68.9286038,23.6479311 68.8370567,23.209813 68.8370567,22.7389925 C68.8370567,22.2681719 68.9286038,21.8169756 69.1117006,21.3853901 C69.2947975,20.9538046 69.5432824,20.5810772 69.8571628,20.2671969 C70.1710432,19.9533165 70.5372315,19.7048316 70.9557386,19.5217347 C71.3742458,19.3386378 71.818903,19.2470908 72.2897235,19.2470908 C72.7605441,19.2470908 73.2052013,19.3386378 73.6237085,19.5217347 C74.0422156,19.7048316 74.4084039,19.9533165 74.7222843,20.2671969 C75.0361647,20.5810772 75.2911886,20.9538046 75.4873639,21.3853901 C75.6835391,21.8169756 75.7816252,22.2681719 75.7816252,22.7389925 C75.7816252,23.209813 75.6835391,23.6479311 75.4873639,24.05336 Z M87.9444289,70.2352226 L87.9444289,31.1965462 L89.9846412,31.1965462 C90.6647153,31.1965462 91.0570599,31.5235 91.1616867,32.1774175 L91.5148003,37.827236 C92.2733446,36.7548114 93.08419,35.7739499 93.9473611,34.8846222 C94.8105321,33.9952944 95.7325419,33.2302225 96.713418,32.5893834 C97.6942942,31.9485443 98.7405464,31.4515745 99.8522061,31.0984591 C100.963866,30.7453437 102.13436,30.5687886 103.363725,30.5687886 C106.214805,30.5687886 108.490404,31.3992513 110.190589,33.0602016 C111.890775,34.7211519 113.041652,37.0294459 113.643256,39.9851528 C114.114077,38.3634375 114.774523,36.9640751 115.624616,35.7870237 C116.474709,34.6099723 117.449031,33.63565 118.547612,32.8640274 C119.646194,32.0924048 120.842845,31.5169661 122.137601,31.1376939 C123.432358,30.7584218 124.75979,30.5687886 126.119939,30.5687886 C128.055534,30.5687886 129.794929,30.8892033 131.338174,31.5300424 C132.881419,32.1708815 134.195773,33.1190476 135.281276,34.3745691 C136.366779,35.6300906 137.197242,37.1733126 137.772689,39.0042815 C138.348137,40.8352503 138.635856,42.9277548 138.635856,45.2818576 L138.635856,70.2352226 L134.86931,70.2352226 L134.86931,45.2818576 C134.86931,41.4629797 134.045387,38.5530907 132.397515,36.5521033 C130.749643,34.5511159 128.395575,33.5506373 125.335242,33.5506373 C123.975093,33.5506373 122.673817,33.7991222 121.431374,34.2960994 C120.188931,34.7930767 119.090366,35.5319923 118.135646,36.5128685 C117.180927,37.4937446 116.422394,38.7165519 115.860025,40.181327 C115.297656,41.6461021 115.016476,43.3462619 115.016476,45.2818576 L115.016476,70.2352226 L111.289165,70.2352226 L111.289165,45.2818576 C111.289165,41.4891364 110.530632,38.5857865 109.013544,36.5717207 C107.496455,34.557655 105.286247,33.5506373 102.382854,33.5506373 C100.264161,33.5506373 98.3024385,34.1849277 96.4976264,35.4535275 C94.6928142,36.7221274 93.0842014,38.4811389 91.6717397,40.7306149 L91.6717397,70.2352226 L87.9444289,70.2352226 Z M175.281206,70.2352226 C174.496505,70.2352226 174.012614,69.8690343 173.829517,69.1366467 L173.280229,64.1538207 C172.207804,65.2000886 171.141935,66.1417156 170.082589,66.97873 C169.023242,67.8157443 167.918138,68.5219645 166.767244,69.0974119 C165.616349,69.6728592 164.373925,70.1109774 163.039933,70.4117794 C161.705941,70.7125814 160.241188,70.8629802 158.64563,70.8629802 C157.311638,70.8629802 156.016901,70.6668079 154.76138,70.2744574 C153.505858,69.8821069 152.394215,69.2805119 151.426417,68.4696543 C150.458619,67.6587967 149.680469,66.6190835 149.091944,65.3504837 C148.503418,64.0818838 148.209159,62.558279 148.209159,60.7796236 C148.209159,59.1317516 148.679973,57.6016077 149.621614,56.189146 C150.563255,54.7766844 152.034547,53.547338 154.035535,52.5010701 C156.036522,51.4548022 158.612918,50.6178004 161.7648,49.9900397 C164.916682,49.3622789 168.702808,48.9960906 173.12329,48.8914638 L173.12329,44.8110394 C173.12329,41.2014151 172.345139,38.4223076 170.788816,36.4736336 C169.232492,34.5249596 166.924198,33.5506373 163.863865,33.5506373 C161.980583,33.5506373 160.378509,33.8122003 159.057596,34.3353343 C157.736682,34.8584682 156.6185,35.4339069 155.703016,36.0616677 C154.787531,36.6894284 154.042077,37.2648672 153.466629,37.7880011 C152.891182,38.3111351 152.40729,38.5726981 152.01494,38.5726981 C151.491806,38.5726981 151.099461,38.3372914 150.837894,37.8664708 L150.170902,36.7286602 C152.211124,34.6884377 154.355941,33.1452157 156.605417,32.0989478 C158.854893,31.0526799 161.405133,30.5295538 164.256213,30.5295538 C166.348749,30.5295538 168.179691,30.8630467 169.749092,31.5300424 C171.318494,32.1970382 172.619771,33.1517434 173.65296,34.3941865 C174.68615,35.6366297 175.4643,37.1406173 175.987434,38.9061944 C176.510568,40.6717715 176.772131,42.6400335 176.772131,44.8110394 L176.772131,70.2352226 L175.281206,70.2352226 Z M159.587266,68.1557755 C161.104355,68.1557755 162.497178,67.9922986 163.765778,67.6653398 C165.034378,67.3383811 166.211411,66.8806458 167.296914,66.2921201 C168.382417,65.7035944 169.395974,65.0039132 170.337615,64.1930556 C171.279256,63.3821979 172.207805,62.5059617 173.12329,61.5643206 L173.12329,51.4024943 C169.409038,51.5071211 166.21143,51.7883014 163.530369,52.2460436 C160.849307,52.7037858 158.639099,53.324998 156.899679,54.109699 C155.160258,54.8943999 153.878599,55.8294878 153.054664,56.9149908 C152.230728,58.0004937 151.818766,59.2363792 151.818766,60.6226842 C151.818766,61.9305191 152.034555,63.0617793 152.466141,64.0164987 C152.897726,64.9712182 153.466626,65.7559074 154.172857,66.3705898 C154.879088,66.9852722 155.703011,67.4364684 156.644652,67.7241921 C157.586293,68.0119158 158.567155,68.1557755 159.587266,68.1557755 C159.587266,68.1557755 158.567155,68.1557755 159.587266,68.1557755 Z M159.587266,68.1557755" id="{LimaJS}" fill="#000000" sketch:type="MSShapeGroup"></path>
        <path d="M5.37517453,48.5604111 C5.37517453,46.9125391 4.91743919,45.5589503 4.00195476,44.499604 C3.08647034,43.4402578 1.75249876,42.9105926 0,42.9105926 L0,38.7124636 C1.75249876,38.7124636 3.08647034,38.1893374 4.00195476,37.1430695 C4.91743919,36.0968016 5.37517453,34.7366737 5.37517453,33.0626451 C5.37517453,31.7548102 5.27054931,30.4600731 5.06129573,29.1783949 C4.85204214,27.8967167 4.62317447,26.6150577 4.37468584,25.3333795 C4.12619721,24.0517013 3.89732954,22.7569642 3.68807596,21.4491293 C3.47882237,20.1412944 3.37419715,18.8073228 3.37419715,17.4471745 C3.37419715,15.6423624 3.64229928,13.981437 4.17851159,12.4643485 C4.71472389,10.94726 5.52556937,9.63944476 6.61107233,8.54086345 C7.69657529,7.44228214 9.04362502,6.59220221 10.6522619,5.99059816 C12.2608989,5.38899411 14.1376138,5.08819659 16.282463,5.08819659 L18.3619101,5.08819659 L18.3619101,8.18774979 C18.3619101,8.71088375 18.1788159,9.09015018 17.8126222,9.32556046 C17.4464284,9.56097074 17.1063964,9.67867411 16.7925161,9.67867411 L16.007819,9.67867411 C13.9937533,9.67867411 12.4047578,10.3391208 11.2407847,11.6600341 C10.0768116,12.9809473 9.49483385,14.7661152 9.49483385,17.0155912 C9.49483385,18.4803663 9.58638091,19.8928068 9.7694778,21.252955 C9.95257468,22.6131033 10.1618251,23.9405358 10.3972354,25.2352924 C10.6326457,26.5300489 10.8418961,27.818247 11.024993,29.0999252 C11.2080899,30.3816034 11.299637,31.6763405 11.299637,32.9841754 C11.299637,33.9781299 11.1557773,34.9001397 10.8680536,35.7502323 C10.5803299,36.600325 10.1683681,37.3588579 9.63215582,38.0258537 C9.09594352,38.6928495 8.46819218,39.2682882 7.74888299,39.7521871 C7.0295738,40.236086 6.23834556,40.5957352 5.37517453,40.8311455 C6.23834556,41.0665558 7.0295738,41.426205 7.74888299,41.9101039 C8.46819218,42.3940028 9.09594352,42.9759806 9.63215582,43.6560547 C10.1683681,44.3361289 10.5803299,45.0946617 10.8680536,45.9316761 C11.1557773,46.7686904 11.299637,47.6710829 11.299637,48.6388808 C11.299637,49.9467157 11.2080899,51.2414528 11.024993,52.523131 C10.8418961,53.8048092 10.6326457,55.0930072 10.3972354,56.3877638 C10.1618251,57.6825203 9.95257468,59.0099528 9.7694778,60.3701011 C9.58638091,61.7302494 9.49483385,63.1426899 9.49483385,64.607465 C9.49483385,66.8830977 10.0768116,68.6748046 11.2407847,69.9826395 C12.4047578,71.2904744 13.9937533,71.944382 16.007819,71.944382 L16.7925161,71.944382 C17.1063964,71.944382 17.4464284,72.0620854 17.8126222,72.2974957 C18.1788159,72.532906 18.3619101,72.9121724 18.3619101,73.4353063 L18.3619101,76.5740944 L16.282463,76.5740944 C14.1376138,76.5740944 12.2608989,76.2667578 10.6522619,75.6520754 C9.04362502,75.037393 7.69657529,74.180774 6.61107233,73.0821927 C5.52556937,71.9836114 4.71472389,70.6757961 4.17851159,69.1587076 C3.64229928,67.6416191 3.37419715,65.9806937 3.37419715,64.1758816 C3.37419715,62.8157333 3.47882237,61.4883008 3.68807596,60.1935443 C3.89732954,58.8987877 4.12619721,57.6040506 4.37468584,56.3092941 C4.62317447,55.0145375 4.85204214,53.7263395 5.06129573,52.4446613 C5.27054931,51.1629831 5.37517453,49.868246 5.37517453,48.5604111 C5.37517453,48.5604111 5.37517453,49.868246 5.37517453,48.5604111 L5.37517453,48.5604111 L5.37517453,48.5604111 Z M5.37517453,48.5604111" id="Path" fill="#000000" sketch:type="MSShapeGroup"></path>
        <path d="M283.212371,52.4446613 C283.421624,53.7263395 283.650492,55.0145375 283.898981,56.3092941 C284.147469,57.6040506 284.376337,58.8987877 284.585591,60.1935443 C284.794844,61.4883008 284.899469,62.8157333 284.899469,64.1758816 C284.899469,65.9806937 284.624828,67.6416191 284.075538,69.1587076 C283.526247,70.6757961 282.715401,71.9836114 281.642977,73.0821927 C280.570552,74.180774 279.230042,75.037393 277.621405,75.6520754 C276.012768,76.2667578 274.136053,76.5740944 271.991204,76.5740944 L269.911756,76.5740944 L269.911756,73.4353063 C269.911756,72.9121724 270.094851,72.532906 270.461044,72.2974957 C270.827238,72.0620854 271.16727,71.944382 271.481151,71.944382 L272.265848,71.944382 C274.279913,71.944382 275.868909,71.2904744 277.032882,69.9826395 C278.196855,68.6748046 278.778833,66.8830977 278.778833,64.607465 C278.778833,63.1426899 278.687286,61.7302494 278.504189,60.3701011 C278.321092,59.0099528 278.111841,57.6825203 277.876431,56.3877638 C277.641021,55.0930072 277.43177,53.8048092 277.248674,52.523131 C277.065577,51.2414528 276.97403,49.9467157 276.97403,48.6388808 C276.97403,47.6710829 277.117889,46.7686904 277.405613,45.9316761 C277.693337,45.0946617 278.105298,44.3361289 278.641511,43.6560547 C279.177723,42.9759806 279.805474,42.3940028 280.524784,41.9101039 C281.244093,41.426205 282.035321,41.0665558 282.898492,40.8311455 C282.035321,40.5957352 281.244093,40.236086 280.524784,39.7521871 C279.805474,39.2682882 279.177723,38.6928495 278.641511,38.0258537 C278.105298,37.3588579 277.693337,36.600325 277.405613,35.7502323 C277.117889,34.9001397 276.97403,33.9781299 276.97403,32.9841754 C276.97403,31.6763405 277.065577,30.3816034 277.248674,29.0999252 C277.43177,27.818247 277.641021,26.5300489 277.876431,25.2352924 C278.111841,23.9405358 278.321092,22.6131033 278.504189,21.252955 C278.687286,19.8928068 278.778833,18.4803663 278.778833,17.0155912 C278.778833,14.7661152 278.196855,12.9809473 277.032882,11.6600341 C275.868909,10.3391208 274.279913,9.67867411 272.265848,9.67867411 L271.481151,9.67867411 C271.16727,9.67867411 270.827238,9.56097074 270.461044,9.32556046 C270.094851,9.09015018 269.911756,8.71088375 269.911756,8.18774979 L269.911756,5.08819659 L271.991204,5.08819659 C274.136053,5.08819659 276.012768,5.38899411 277.621405,5.99059816 C279.230042,6.59220221 280.570552,7.44228214 281.642977,8.54086345 C282.715401,9.63944476 283.526247,10.94726 284.075538,12.4643485 C284.624828,13.981437 284.899469,15.6423624 284.899469,17.4471745 C284.899469,18.8073228 284.794844,20.1412944 284.585591,21.4491293 C284.376337,22.7569642 284.147469,24.0517013 283.898981,25.3333795 C283.650492,26.6150577 283.421624,27.8967167 283.212371,29.1783949 C283.003117,30.4600731 282.898492,31.7548102 282.898492,33.0626451 C282.898492,34.7366737 283.356227,36.0968016 284.271712,37.1430695 C285.187196,38.1893374 286.521168,38.7124636 288.273667,38.7124636 L288.273667,42.9105926 C286.521168,42.9105926 285.187196,43.4402578 284.271712,44.499604 C283.356227,45.5589503 282.898492,46.9125391 282.898492,48.5604111 C282.898492,49.868246 283.003117,51.1629831 283.212371,52.4446613 Z M283.212371,52.4446613" id="Path" fill="#000000" sketch:type="MSShapeGroup"></path>
        <path d="M211.22033,49.5192214 C211.22033,52.7103386 210.821446,55.6136885 210.023667,58.2293583 C209.225887,60.8450281 208.022697,63.0879313 206.41406,64.9581352 C204.805423,66.8283391 202.784849,68.280014 200.352276,69.3132036 C197.919703,70.3463931 195.055588,70.8629802 191.759844,70.8629802 C190.268912,70.8629802 188.79762,70.7845113 187.345923,70.6275711 C185.894226,70.4706309 184.3837,70.2090678 182.814298,69.8428741 L183.520525,62.1136085 C183.572838,61.4335343 183.840941,60.8842519 184.324839,60.4657448 C184.808738,60.0472376 185.482263,59.8379872 186.345434,59.8379872 C186.790098,59.8379872 187.339381,59.909917 187.993298,60.0537788 C188.647215,60.1976407 189.431905,60.2695705 190.347389,60.2695705 C191.629067,60.2695705 192.747249,60.0930154 193.701969,59.7399 C194.656688,59.3867846 195.447916,58.7982677 196.075677,57.9743318 C196.703438,57.1503958 197.174251,56.0714482 197.488132,54.7374566 C197.802012,53.403465 197.95895,51.7556177 197.95895,49.7938654 L197.95895,13.0700452 L211.22033,13.0700452 L211.22033,13.0700452 L211.22033,49.5192214 L211.22033,49.5192214 Z M211.22033,49.5192214" id="Path" fill="#000000" sketch:type="MSShapeGroup"></path>
        <path d="M252.495392,24.683561 C252.103042,25.3113218 251.69108,25.7821353 251.259495,26.0960156 C250.827909,26.409896 250.272088,26.5668338 249.592013,26.5668338 C248.990409,26.5668338 248.343041,26.3772006 247.649888,25.9979285 C246.956736,25.6186564 246.172047,25.1936164 245.295797,24.7227959 C244.419548,24.2519753 243.419069,23.8269353 242.294331,23.4476632 C241.169593,23.0683911 239.887934,22.8787579 238.449316,22.8787579 C235.96443,22.8787579 234.113871,23.4084231 232.897584,24.4677693 C231.681298,25.5271156 231.073164,26.9591733 231.073164,28.7639855 C231.073164,29.9148802 231.439352,30.8695853 232.17174,31.6281296 C232.904127,32.3866738 233.865372,33.0405814 235.055501,33.5898721 C236.245631,34.1391628 237.605759,34.6426716 239.135926,35.1004139 C240.666093,35.5581561 242.228932,36.068204 243.82449,36.630573 C245.420049,37.192942 246.982888,37.8533887 248.513055,38.611933 C250.043222,39.3704772 251.40335,40.3382605 252.593479,41.5153119 C253.783609,42.6923633 254.744853,44.1244211 255.477241,45.8115281 C256.209629,47.4986351 256.575817,49.5322878 256.575817,51.9125473 C256.575817,54.5543738 256.118081,57.0261447 255.202597,59.3279341 C254.287113,61.6297235 252.95968,63.63722 251.22026,65.3504837 C249.480839,67.0637474 247.336022,68.4107971 244.785744,69.3916733 C242.235466,70.3725494 239.338655,70.8629802 236.095225,70.8629802 C234.316569,70.8629802 232.505245,70.679886 230.661198,70.3136923 C228.817151,69.9474985 227.031983,69.4309115 225.305641,68.7639157 C223.579299,68.0969199 221.957608,67.3056916 220.440519,66.3902072 C218.923431,65.4747228 217.602538,64.4546269 216.477799,63.3298889 L220.401285,57.1307825 C220.689008,56.6599619 221.094431,56.2806955 221.617565,55.9929718 C222.140699,55.7052481 222.703059,55.5613884 223.304664,55.5613884 C224.089364,55.5613884 224.880593,55.8098733 225.678372,56.3068506 C226.476151,56.8038279 227.378544,57.3531103 228.385577,57.9547143 C229.39261,58.5563184 230.550026,59.1056008 231.857861,59.6025781 C233.165696,60.0995553 234.708918,60.3480402 236.487573,60.3480402 C238.89399,60.3480402 240.764165,59.818375 242.098157,58.7590288 C243.432149,57.6996825 244.099134,56.0191399 244.099134,53.7173505 C244.099134,52.3833589 243.732946,51.2978722 243.000559,50.4608579 C242.268171,49.6238435 241.306927,48.9307014 240.116797,48.3814108 C238.926667,47.8321201 237.573078,47.3482285 236.05599,46.9297213 C234.538901,46.5112141 232.982601,46.0469397 231.387043,45.5368841 C229.791484,45.0268285 228.235184,44.3990772 226.718096,43.6536113 C225.201007,42.9081454 223.847418,41.9272839 222.657288,40.7109975 C221.467159,39.494711 220.505914,37.9776453 219.773527,36.1597548 C219.041139,34.3418643 218.674951,32.0989611 218.674951,29.4309779 C218.674951,27.2861287 219.10653,25.1936243 219.969701,23.1534018 C220.832872,21.1131794 222.101453,19.2953162 223.775482,17.6997576 C225.44951,16.104199 227.50278,14.8290791 229.935353,13.8743597 C232.367926,12.9196402 235.153573,12.4422876 238.292376,12.4422876 C240.044875,12.4422876 241.751574,12.5796082 243.412524,12.8542536 C245.073475,13.1288989 246.649392,13.5343216 248.140324,14.0705339 C249.631256,14.6067462 251.024079,15.2475757 252.318836,15.9930416 C253.613592,16.7385075 254.771009,17.5820483 255.79112,18.5236895 C255.79112,18.5236895 254.771009,17.5820483 255.79112,18.5236895 L252.495392,24.683561 L252.495392,24.683561 Z M252.495392,24.683561" id="Path" fill="#000000" sketch:type="MSShapeGroup"></path>
        <path d="M19.6112763,101.16717 L26.7901623,101.16717 L26.7901623,102.097964 L18.52,102.097964 L18.52,86.9591806 L19.6112763,86.9591806 L19.6112763,101.16717 Z M30.2672681,91.4526711 L30.2672681,102.097964 L29.2508833,102.097964 L29.2508833,91.4526711 L30.2672681,91.4526711 Z M30.7166171,87.7829872 C30.7166171,87.9113733 30.6898704,88.0308419 30.6363762,88.1413965 C30.582882,88.2519512 30.5133406,88.3500225 30.4277499,88.4356132 C30.3421591,88.5212039 30.2423048,88.5889622 30.1281838,88.6388901 C30.0140629,88.6888181 29.8928112,88.7137817 29.7644251,88.7137817 C29.636039,88.7137817 29.5147873,88.6888181 29.4006663,88.6388901 C29.2865454,88.5889622 29.186691,88.5212039 29.1011003,88.4356132 C29.0155096,88.3500225 28.9477513,88.2519512 28.8978233,88.1413965 C28.8478954,88.0308419 28.8229318,87.9113733 28.8229318,87.7829872 C28.8229318,87.6546011 28.8478954,87.5315663 28.8978233,87.413879 C28.9477513,87.2961918 29.0155096,87.1945543 29.1011003,87.1089636 C29.186691,87.0233729 29.2865454,86.9556146 29.4006663,86.9056867 C29.5147873,86.8557587 29.636039,86.8307951 29.7644251,86.8307951 C29.8928112,86.8307951 30.0140629,86.8557587 30.1281838,86.9056867 C30.2423048,86.9556146 30.3421591,87.0233729 30.4277499,87.1089636 C30.5133406,87.1945543 30.582882,87.2961918 30.6363762,87.413879 C30.6898704,87.5315663 30.7166171,87.6546011 30.7166171,87.7829872 C30.7166171,87.7829872 30.7166171,87.6546011 30.7166171,87.7829872 Z M34.0332411,102.097964 L34.0332411,91.4526711 L34.589578,91.4526711 C34.7750246,91.4526711 34.8820114,91.5418268 34.9105416,91.7201408 L35.0068307,93.2607661 C35.2136749,92.9683311 35.434781,92.7008641 35.6701555,92.4583571 C35.90553,92.21585 36.1569489,92.0072258 36.42442,91.832478 C36.691891,91.6577303 36.9771891,91.5222137 37.2803229,91.4259241 C37.5834567,91.3296346 37.902634,91.2814905 38.2378643,91.2814905 C39.0153134,91.2814905 39.6358369,91.5079459 40.0994533,91.9608635 C40.5630697,92.4137811 40.8768976,93.0432201 41.0409465,93.8491994 C41.1693326,93.4069806 41.3494271,93.0253944 41.5812353,92.7044292 C41.8130435,92.383464 42.0787274,92.1177801 42.3782949,91.9073696 C42.6778624,91.696959 43.0041722,91.5400451 43.3572339,91.4366229 C43.7102956,91.3332008 44.0722676,91.2814905 44.4431608,91.2814905 C44.9709702,91.2814905 45.4452784,91.3688631 45.8660994,91.5436108 C46.2869205,91.7183585 46.6453263,91.97691 46.9413275,92.3192729 C47.2373288,92.6616357 47.4637842,93.0824505 47.6207005,93.5817297 C47.7776168,94.0810089 47.8560738,94.6516052 47.8560738,95.2935356 L47.8560738,102.097964 L46.8289903,102.097964 L46.8289903,95.2935356 C46.8289903,94.2521818 46.604318,93.4586964 46.1549667,92.9130555 C45.7056154,92.3674147 45.0636946,92.0945983 44.229185,92.0945983 C43.8582919,92.0945983 43.5034523,92.1623566 43.1646557,92.2978753 C42.8258591,92.4333939 42.5262961,92.6348857 42.2659576,92.9023567 C42.0056192,93.1698278 41.798778,93.5032699 41.645428,93.9026933 C41.4920779,94.3021167 41.4154041,94.7657262 41.4154041,95.2935356 L41.4154041,102.097964 L40.3990193,102.097964 L40.3990193,95.2935356 C40.3990193,94.2593144 40.1921782,93.4676121 39.7784897,92.9184049 C39.3648012,92.3691978 38.7621089,92.0945983 37.9703947,92.0945983 C37.3926573,92.0945983 36.8577233,92.2675603 36.3655766,92.6134895 C35.87343,92.9594187 35.4347841,93.4390762 35.0496258,94.0524763 L35.0496258,102.097964 L34.0332411,102.097964 Z M57.8487408,102.097964 C57.634764,102.097964 57.5028136,101.99811 57.4528857,101.798398 L57.3031027,100.439652 C57.0106677,100.724955 56.7200202,100.981723 56.4311515,101.209965 C56.1422829,101.438207 55.8409367,101.630783 55.527104,101.787699 C55.2132714,101.944616 54.8744799,102.064084 54.5107193,102.146109 C54.1469587,102.228133 53.7475413,102.269145 53.3124552,102.269145 C52.9486946,102.269145 52.5956381,102.215651 52.2532752,102.108663 C51.9109123,102.001675 51.6077831,101.837628 51.3438784,101.616519 C51.0799736,101.395409 50.8677831,101.111894 50.7073005,100.765965 C50.5468179,100.420036 50.4665778,100.004571 50.4665778,99.5195565 C50.4665778,99.0702052 50.594962,98.6529566 50.8517342,98.2677984 C51.1085063,97.8826401 51.5097068,97.5474148 52.0553477,97.2621124 C52.6009885,96.97681 53.3035352,96.7485715 54.1630087,96.5773901 C55.0224822,96.4062086 56.0549048,96.3063543 57.2603075,96.277824 L57.2603075,95.1651502 C57.2603075,94.1808569 57.048117,93.4230337 56.6237297,92.891658 C56.1993424,92.3602822 55.5699034,92.0945983 54.7353938,92.0945983 C54.2218495,92.0945983 53.7849867,92.1659229 53.4247924,92.3085741 C53.0645981,92.4512253 52.7596857,92.6081392 52.5100461,92.7793207 C52.2604065,92.9505021 52.0571316,93.1074161 51.9002153,93.2500673 C51.7432989,93.3927185 51.6113486,93.4640431 51.5043602,93.4640431 C51.361709,93.4640431 51.2547222,93.399851 51.1833965,93.2714649 L51.0015172,92.9612001 C51.5578569,92.4048604 52.142718,91.9840456 52.7561182,91.6987432 C53.3695184,91.4134408 54.0649326,91.2707917 54.8423817,91.2707917 C55.4129865,91.2707917 55.9122582,91.3617305 56.3402119,91.5436108 C56.7681655,91.7254911 57.123005,91.9858256 57.4047412,92.3246222 C57.6864773,92.6634189 57.8986678,93.0735349 58.041319,93.5549827 C58.1839702,94.0364306 58.2552947,94.5731477 58.2552947,95.1651502 L58.2552947,102.097964 L57.8487408,102.097964 Z M53.569226,101.530928 C53.9829145,101.530928 54.3627177,101.486351 54.7086468,101.397194 C55.054576,101.308037 55.3755364,101.183219 55.6715377,101.022736 C55.9675389,100.862253 56.2439215,100.67146 56.5006937,100.450351 C56.7574658,100.229242 57.0106679,99.9903044 57.2603075,99.7335322 L57.2603075,96.9625464 C56.247484,96.9910766 55.3755416,97.0677505 54.6444541,97.1925703 C53.9133667,97.3173901 53.3106744,97.4867859 52.8363591,97.7007627 C52.3620439,97.9147395 52.0125537,98.1697247 51.787878,98.465726 C51.5632024,98.7617272 51.4508662,99.0987356 51.4508662,99.4767613 C51.4508662,99.8333893 51.509709,100.141868 51.6273962,100.402206 C51.7450835,100.662545 51.9002143,100.876518 52.0927934,101.044134 C52.2853726,101.211749 52.5100448,101.334784 52.766817,101.413242 C53.0235892,101.4917 53.2910562,101.530928 53.569226,101.530928 C53.569226,101.530928 53.2910562,101.530928 53.569226,101.530928 Z M71.3292124,97.0481367 C71.3292124,97.8969114 71.2240087,98.645819 71.0135982,99.2948819 C70.8031876,99.9439449 70.5036246,100.489578 70.1149001,100.931796 C69.7261755,101.374015 69.2518674,101.707457 68.6919614,101.932133 C68.1320554,102.156809 67.5026164,102.269145 66.8036255,102.269145 C66.4826603,102.269145 66.1581337,102.244181 65.8300359,102.194253 C65.5019381,102.144325 65.1631466,102.065868 64.8136511,101.95888 C64.8279162,101.859024 64.840398,101.75917 64.8510969,101.659314 C64.8617957,101.559458 64.8707113,101.459604 64.8778438,101.359748 C64.892109,101.295555 64.9188557,101.238495 64.9580847,101.188567 C64.9973138,101.138639 65.0668552,101.113676 65.1667111,101.113676 C65.2309041,101.113676 65.307578,101.126158 65.396735,101.151121 C65.485892,101.176085 65.5928788,101.202832 65.7176986,101.231362 C65.8425184,101.259893 65.9851675,101.286639 66.1456501,101.311603 C66.3061327,101.336567 66.4933596,101.349049 66.7073364,101.349049 C67.249411,101.349049 67.737984,101.26346 68.1730702,101.092278 C68.6081564,100.921097 68.979044,100.658979 69.2857441,100.305917 C69.5924442,99.9528556 69.826032,99.5070772 69.9865146,98.9685689 C70.1469972,98.4300606 70.2272373,97.7970554 70.2272373,97.0695343 L70.2272373,86.9591806 L71.3292124,86.9591806 L71.3292124,97.0481367 Z M82.1028908,102.097964 C81.888914,102.097964 81.7569636,101.99811 81.7070357,101.798398 L81.5572527,100.439652 C81.2648177,100.724955 80.9741702,100.981723 80.6853016,101.209965 C80.3964329,101.438207 80.0950867,101.630783 79.7812541,101.787699 C79.4674214,101.944616 79.1286299,102.064084 78.7648693,102.146109 C78.4011087,102.228133 78.0016913,102.269145 77.5666052,102.269145 C77.2028446,102.269145 76.8497881,102.215651 76.5074253,102.108663 C76.1650624,102.001675 75.8619331,101.837628 75.5980284,101.616519 C75.3341236,101.395409 75.1219331,101.111894 74.9614505,100.765965 C74.8009679,100.420036 74.7207278,100.004571 74.7207278,99.5195565 C74.7207278,99.0702052 74.849112,98.6529566 75.1058842,98.2677984 C75.3626563,97.8826401 75.7638568,97.5474148 76.3094977,97.2621124 C76.8551386,96.97681 77.5576852,96.7485715 78.4171587,96.5773901 C79.2766322,96.4062086 80.3090549,96.3063543 81.5144575,96.277824 L81.5144575,95.1651502 C81.5144575,94.1808569 81.3022671,93.4230337 80.8778797,92.891658 C80.4534924,92.3602822 79.8240534,92.0945983 78.9895438,92.0945983 C78.4759995,92.0945983 78.0391367,92.1659229 77.6789424,92.3085741 C77.3187481,92.4512253 77.0138357,92.6081392 76.7641961,92.7793207 C76.5145565,92.9505021 76.3112816,93.1074161 76.1543653,93.2500673 C75.997449,93.3927185 75.8654986,93.4640431 75.7585102,93.4640431 C75.615859,93.4640431 75.5088722,93.399851 75.4375466,93.2714649 L75.2556672,92.9612001 C75.8120069,92.4048604 76.3968681,91.9840456 77.0102682,91.6987432 C77.6236684,91.4134408 78.3190826,91.2707917 79.0965317,91.2707917 C79.6671365,91.2707917 80.1664082,91.3617305 80.5943619,91.5436108 C81.0223155,91.7254911 81.377155,91.9858256 81.6588912,92.3246222 C81.9406273,92.6634189 82.1528178,93.0735349 82.295469,93.5549827 C82.4381202,94.0364306 82.5094447,94.5731477 82.5094447,95.1651502 L82.5094447,102.097964 L82.1028908,102.097964 Z M77.823376,101.530928 C78.2370645,101.530928 78.6168677,101.486351 78.9627969,101.397194 C79.308726,101.308037 79.6296864,101.183219 79.9256877,101.022736 C80.2216889,100.862253 80.4980715,100.67146 80.7548437,100.450351 C81.0116158,100.229242 81.2648179,99.9903044 81.5144575,99.7335322 L81.5144575,96.9625464 C80.501634,96.9910766 79.6296916,97.0677505 78.8986041,97.1925703 C78.1675167,97.3173901 77.5648244,97.4867859 77.0905091,97.7007627 C76.6161939,97.9147395 76.2667037,98.1697247 76.042028,98.465726 C75.8173524,98.7617272 75.7050162,99.0987356 75.7050162,99.4767613 C75.7050162,99.8333893 75.763859,100.141868 75.8815462,100.402206 C75.9992335,100.662545 76.1543643,100.876518 76.3469434,101.044134 C76.5395226,101.211749 76.7641949,101.334784 77.020967,101.413242 C77.2777392,101.4917 77.5452062,101.530928 77.823376,101.530928 C77.823376,101.530928 77.5452062,101.530928 77.823376,101.530928 Z M89.3780659,102.097964 L88.4793678,102.097964 L83.9858773,91.4526711 L84.7882863,91.4526711 C84.8881422,91.4526711 84.9683823,91.4794178 85.0290091,91.532912 C85.0896358,91.5864062 85.1342137,91.645249 85.1627439,91.709442 L88.671946,100.10799 C88.7432716,100.272039 88.796765,100.428953 88.8324278,100.578736 L88.9394157,101.028085 C88.9750785,100.878302 89.0125239,100.726737 89.0517529,100.573387 C89.090982,100.420037 89.1426923,100.264906 89.2068854,100.10799 L92.7374851,91.709442 C92.7731479,91.6309838 92.8212919,91.5685749 92.8819187,91.5222132 C92.9425454,91.4758516 93.0156531,91.4526711 93.1012438,91.4526711 L93.8715565,91.4526711 L89.3780659,102.097964 Z M102.665959,102.097964 C102.451983,102.097964 102.320032,101.99811 102.270104,101.798398 L102.120321,100.439652 C101.827886,100.724955 101.537239,100.981723 101.24837,101.209965 C100.959501,101.438207 100.658155,101.630783 100.344323,101.787699 C100.03049,101.944616 99.6916984,102.064084 99.3279378,102.146109 C98.9641772,102.228133 98.5647598,102.269145 98.1296737,102.269145 C97.7659131,102.269145 97.4128567,102.215651 97.0704938,102.108663 C96.7281309,102.001675 96.4250016,101.837628 96.1610969,101.616519 C95.8971921,101.395409 95.6850017,101.111894 95.5245191,100.765965 C95.3640364,100.420036 95.2837963,100.004571 95.2837963,99.5195565 C95.2837963,99.0702052 95.4121805,98.6529566 95.6689527,98.2677984 C95.9257248,97.8826401 96.3269253,97.5474148 96.8725662,97.2621124 C97.4182071,96.97681 98.1207537,96.7485715 98.9802272,96.5773901 C99.8397007,96.4062086 100.872123,96.3063543 102.077526,96.277824 L102.077526,95.1651502 C102.077526,94.1808569 101.865336,93.4230337 101.440948,92.891658 C101.016561,92.3602822 100.387122,92.0945983 99.5526123,92.0945983 C99.039068,92.0945983 98.6022052,92.1659229 98.2420109,92.3085741 C97.8818166,92.4512253 97.5769043,92.6081392 97.3272647,92.7793207 C97.077625,92.9505021 96.8743501,93.1074161 96.7174338,93.2500673 C96.5605175,93.3927185 96.4285671,93.4640431 96.3215787,93.4640431 C96.1789275,93.4640431 96.0719407,93.399851 96.0006151,93.2714649 L95.8187357,92.9612001 C96.3750754,92.4048604 96.9599366,91.9840456 97.5733368,91.6987432 C98.1867369,91.4134408 98.8821511,91.2707917 99.6596002,91.2707917 C100.230205,91.2707917 100.729477,91.3617305 101.15743,91.5436108 C101.585384,91.7254911 101.940224,91.9858256 102.22196,92.3246222 C102.503696,92.6634189 102.715886,93.0735349 102.858538,93.5549827 C103.001189,94.0364306 103.072513,94.5731477 103.072513,95.1651502 L103.072513,102.097964 L102.665959,102.097964 Z M98.3864446,101.530928 C98.8001331,101.530928 99.1799362,101.486351 99.5258654,101.397194 C99.8717945,101.308037 100.192755,101.183219 100.488756,101.022736 C100.784757,100.862253 101.06114,100.67146 101.317912,100.450351 C101.574684,100.229242 101.827886,99.9903044 102.077526,99.7335322 L102.077526,96.9625464 C101.064702,96.9910766 100.19276,97.0677505 99.4616726,97.1925703 C98.7305852,97.3173901 98.1278929,97.4867859 97.6535777,97.7007627 C97.1792624,97.9147395 96.8297722,98.1697247 96.6050965,98.465726 C96.3804209,98.7617272 96.2680847,99.0987356 96.2680847,99.4767613 C96.2680847,99.8333893 96.3269275,100.141868 96.4446147,100.402206 C96.562302,100.662545 96.7174328,100.876518 96.910012,101.044134 C97.1025911,101.211749 97.3272634,101.334784 97.5840355,101.413242 C97.8408077,101.4917 98.1082747,101.530928 98.3864446,101.530928 C98.3864446,101.530928 98.1082747,101.530928 98.3864446,101.530928 Z M114.113661,88.7993719 C114.049468,88.9206255 113.956746,88.9812513 113.835493,88.9812513 C113.74277,88.9812513 113.623301,88.9152761 113.477084,88.7833238 C113.330866,88.6513714 113.13294,88.5051561 112.883301,88.3446735 C112.633661,88.1841909 112.321616,88.0361925 111.947157,87.9006738 C111.572698,87.7651552 111.110871,87.6973969 110.561664,87.6973969 C110.012457,87.6973969 109.529233,87.7758539 109.111978,87.9327702 C108.694724,88.0896865 108.345233,88.3036601 108.063497,88.5746974 C107.781761,88.8457347 107.567788,89.1595627 107.42157,89.5161907 C107.275353,89.8728187 107.202245,90.2472725 107.202245,90.6395633 C107.202245,91.1531076 107.311015,91.5774886 107.528558,91.9127189 C107.746101,92.2479493 108.033182,92.5332474 108.38981,92.7686219 C108.746438,93.0039964 109.151205,93.201922 109.604123,93.3624046 C110.05704,93.5228872 110.522433,93.6815843 111.000314,93.8385006 C111.478196,93.9954169 111.943588,94.1683789 112.396506,94.3573918 C112.849424,94.5464046 113.25419,94.7835587 113.610818,95.0688611 C113.967446,95.3541635 114.254528,95.7054368 114.472071,96.1226916 C114.689614,96.5399464 114.798384,97.0588324 114.798384,97.6793651 C114.798384,98.314163 114.689614,98.9115059 114.472071,99.4714119 C114.254528,100.031318 113.938917,100.518108 113.525228,100.931796 C113.11154,101.345485 112.605135,101.671795 112.006,101.910735 C111.406865,102.149676 110.72215,102.269145 109.951833,102.269145 C108.953275,102.269145 108.093814,102.092616 107.373426,101.739555 C106.653037,101.386493 106.021815,100.903269 105.47974,100.289869 L105.779306,99.8191225 C105.864897,99.7121341 105.964751,99.6586407 106.078872,99.6586407 C106.143065,99.6586407 106.225089,99.7014354 106.324944,99.7870261 C106.4248,99.8726169 106.546052,99.9778206 106.688703,100.10264 C106.831354,100.22746 107.002533,100.362977 107.202245,100.509194 C107.401957,100.655412 107.633761,100.790928 107.897666,100.915748 C108.161571,101.040568 108.4647,101.145772 108.807063,101.231362 C109.149426,101.316953 109.538145,101.359748 109.973231,101.359748 C110.572366,101.359748 111.1073,101.268809 111.578049,101.086929 C112.048798,100.905048 112.446432,100.657196 112.770964,100.343363 C113.095495,100.02953 113.343348,99.6568597 113.514529,99.2253398 C113.685711,98.7938199 113.7713,98.3319936 113.7713,97.8398469 C113.7713,97.3049049 113.66253,96.8644759 113.444987,96.5185467 C113.227444,96.1726176 112.940363,95.8837532 112.583735,95.651945 C112.227107,95.4201368 111.82234,95.2257774 111.369423,95.0688611 C110.916505,94.9119448 110.451112,94.758597 109.973231,94.6088133 C109.495349,94.4590295 109.029957,94.2914168 108.577039,94.1059703 C108.124122,93.9205237 107.719355,93.6833696 107.362727,93.3945009 C107.006099,93.1056322 106.719018,92.7454434 106.501474,92.3139235 C106.283931,91.8824036 106.175161,91.3421202 106.175161,90.6930572 C106.175161,90.1866455 106.27145,89.6980724 106.464029,89.2273234 C106.656608,88.7565744 106.93834,88.341109 107.309233,87.9809147 C107.680126,87.6207204 108.138386,87.3318561 108.684027,87.114313 C109.229668,86.8967699 109.851974,86.788 110.550965,86.788 C111.335547,86.788 112.039877,86.9128179 112.663976,87.1624575 C113.288075,87.4120972 113.856888,87.7936834 114.370432,88.3072277 C114.370432,88.3072277 113.856888,87.7936834 114.370432,88.3072277 L114.113661,88.7993719 Z M124.470087,92.8756098 C124.434424,92.9112726 124.400545,92.9415855 124.368449,92.9665495 C124.336352,92.9915134 124.291774,93.0039952 124.234714,93.0039952 C124.163388,93.0039952 124.065317,92.9558512 123.940497,92.8595616 C123.815677,92.763272 123.649848,92.6580683 123.443004,92.5439474 C123.236159,92.4298264 122.977608,92.3246227 122.667342,92.2283332 C122.357075,92.1320436 121.980838,92.0838995 121.53862,92.0838995 C120.925219,92.0838995 120.38137,92.1926695 119.907055,92.4102125 C119.432739,92.6277556 119.033322,92.9398005 118.70879,93.3463564 C118.384259,93.7529123 118.136406,94.2450516 117.965225,94.822789 C117.794043,95.4005264 117.708454,96.0495796 117.708454,96.7699682 C117.708454,97.5188871 117.795826,98.1822052 117.970574,98.7599426 C118.145322,99.33768 118.393175,99.8244699 118.71414,100.220327 C119.035105,100.616184 119.423824,100.91753 119.880308,101.124375 C120.336791,101.331219 120.843196,101.434639 121.399535,101.434639 C121.91308,101.434639 122.34281,101.374013 122.688739,101.25276 C123.034668,101.131506 123.319966,100.999556 123.544642,100.856905 C123.769318,100.714254 123.947629,100.582303 124.079581,100.46105 C124.211534,100.339796 124.316737,100.27917 124.395196,100.27917 C124.487919,100.27917 124.559243,100.314833 124.609171,100.386158 L124.88734,100.728519 C124.723291,100.942496 124.51645,101.142205 124.26681,101.327651 C124.017171,101.513098 123.735439,101.673578 123.421606,101.809097 C123.107773,101.944616 122.767199,102.049819 122.399872,102.124711 C122.032545,102.199603 121.649176,102.237048 121.249752,102.237048 C120.572159,102.237048 119.953419,102.114014 119.393513,101.86794 C118.833607,101.621867 118.352166,101.265244 117.949176,100.798062 C117.546187,100.330879 117.232359,99.7584994 117.007683,99.0809062 C116.783008,98.403313 116.670671,97.633008 116.670671,96.7699682 C116.670671,95.9568563 116.777658,95.2150812 116.991635,94.5446205 C117.205612,93.8741599 117.517657,93.2964312 117.927779,92.8114171 C118.337901,92.326403 118.840739,91.950166 119.436308,91.682695 C120.031877,91.415224 120.714809,91.2814905 121.485126,91.2814905 C122.176984,91.2814905 122.792158,91.3920435 123.330666,91.6131529 C123.869175,91.8342623 124.338133,92.1338253 124.737557,92.511851 C124.737557,92.511851 124.338133,92.1338253 124.737557,92.511851 L124.470087,92.8756098 Z M127.198278,102.097964 L127.198278,91.4526711 L127.733217,91.4526711 C127.854471,91.4526711 127.941843,91.4776347 127.995337,91.5275626 C128.048832,91.5774905 128.079145,91.66308 128.086277,91.7843335 L128.171867,94.0310788 C128.51423,93.168039 128.970707,92.492239 129.541312,92.0036586 C130.111917,91.5150783 130.814464,91.2707917 131.648973,91.2707917 C131.969938,91.2707917 132.265935,91.3046709 132.536972,91.3724302 C132.80801,91.4401895 133.064778,91.5382608 133.307285,91.6666468 L133.168201,92.3727668 C133.146803,92.4868878 133.075479,92.5439474 132.954225,92.5439474 C132.91143,92.5439474 132.850804,92.5296825 132.772346,92.5011522 C132.693888,92.472622 132.595816,92.4405259 132.478129,92.4048631 C132.360442,92.3692003 132.21601,92.3371043 132.044828,92.3085741 C131.873647,92.2800438 131.677504,92.2657789 131.456395,92.2657789 C130.650416,92.2657789 129.988881,92.5154148 129.47177,93.014694 C128.954659,93.5139732 128.535628,94.234351 128.214663,95.175849 L128.214663,102.097964 L127.198278,102.097964 Z M137.009065,91.4526711 L137.009065,102.097964 L135.992681,102.097964 L135.992681,91.4526711 L137.009065,91.4526711 Z M137.458414,87.7829872 C137.458414,87.9113733 137.431668,88.0308419 137.378174,88.1413965 C137.324679,88.2519512 137.255138,88.3500225 137.169547,88.4356132 C137.083957,88.5212039 136.984102,88.5889622 136.869981,88.6388901 C136.75586,88.6888181 136.634609,88.7137817 136.506222,88.7137817 C136.377836,88.7137817 136.256585,88.6888181 136.142464,88.6388901 C136.028343,88.5889622 135.928488,88.5212039 135.842898,88.4356132 C135.757307,88.3500225 135.689549,88.2519512 135.639621,88.1413965 C135.589693,88.0308419 135.564729,87.9113733 135.564729,87.7829872 C135.564729,87.6546011 135.589693,87.5315663 135.639621,87.413879 C135.689549,87.2961918 135.757307,87.1945543 135.842898,87.1089636 C135.928488,87.0233729 136.028343,86.9556146 136.142464,86.9056867 C136.256585,86.8557587 136.377836,86.8307951 136.506222,86.8307951 C136.634609,86.8307951 136.75586,86.8557587 136.869981,86.9056867 C136.984102,86.9556146 137.083957,87.0233729 137.169547,87.1089636 C137.255138,87.1945543 137.324679,87.2961918 137.378174,87.413879 C137.431668,87.5315663 137.458414,87.6546011 137.458414,87.7829872 C137.458414,87.7829872 137.458414,87.6546011 137.458414,87.7829872 Z M140.775038,105.863937 L140.775038,91.4526711 L141.331375,91.4526711 C141.424099,91.4526711 141.498989,91.4722854 141.55605,91.5115144 C141.61311,91.5507435 141.645206,91.6202849 141.652339,91.7201408 L141.748628,93.367754 C142.219377,92.7258235 142.770359,92.2158531 143.401591,91.8378274 C144.032822,91.4598017 144.740718,91.2707917 145.5253,91.2707917 C146.837691,91.2707917 147.857632,91.7237025 148.585153,92.6295377 C149.312674,93.5353728 149.676429,94.8941052 149.676429,96.7057755 C149.676429,97.4832246 149.574792,98.2089517 149.371514,98.8829786 C149.168236,99.5570056 148.870456,100.141867 148.478165,100.63758 C148.085874,101.133293 147.602651,101.523794 147.028479,101.809097 C146.454308,102.094399 145.792773,102.237048 145.043854,102.237048 C144.316333,102.237048 143.688677,102.105098 143.160868,101.841193 C142.633058,101.577289 142.176581,101.185004 141.791423,100.664327 L141.791423,105.863937 L140.775038,105.863937 Z M145.236433,92.0945983 C144.530309,92.0945983 143.890171,92.278259 143.316,92.6455859 C142.741829,93.0129127 142.233642,93.5246662 141.791423,94.1808618 L141.791423,99.7656286 C142.197979,100.379029 142.649107,100.810542 143.14482,101.060182 C143.640533,101.309821 144.20578,101.434639 144.840577,101.434639 C145.468243,101.434639 146.017442,101.32052 146.488191,101.092278 C146.95894,100.864036 147.353008,100.541293 147.670407,100.124038 C147.987806,99.7067832 148.226743,99.2075114 148.387225,98.6262078 C148.547708,98.0449041 148.627948,97.4047664 148.627948,96.7057755 C148.627948,95.1223471 148.337301,93.9579741 147.755997,93.2126216 C147.174693,92.467269 146.334847,92.0945983 145.236433,92.0945983 Z M155.132811,102.269145 C154.412422,102.269145 153.850741,102.069436 153.447752,101.670013 C153.044762,101.270589 152.84327,100.653632 152.84327,99.8191225 L152.84327,92.5439474 L151.313344,92.5439474 C151.234885,92.5439474 151.170693,92.52255 151.120765,92.4797547 C151.070837,92.4369593 151.045874,92.3763334 151.045874,92.2978753 L151.045874,91.9020202 L152.864668,91.7736347 L153.121439,87.9648666 C153.128571,87.9006735 153.155318,87.8436139 153.201679,87.793686 C153.248041,87.7437581 153.31045,87.7187945 153.388908,87.7187945 L153.870354,87.7187945 L153.870354,91.7843335 L157.219074,91.7843335 L157.219074,92.5439474 L153.870354,92.5439474 L153.870354,99.7656286 C153.870354,100.058064 153.907799,100.309483 153.982691,100.519893 C154.057583,100.730304 154.161003,100.903266 154.292956,101.038784 C154.424908,101.174303 154.580039,101.274157 154.758353,101.33835 C154.936667,101.402543 155.129243,101.434639 155.336087,101.434639 C155.59286,101.434639 155.813966,101.397194 155.999412,101.322302 C156.184859,101.24741 156.345339,101.165387 156.480858,101.07623 C156.616376,100.987073 156.726929,100.90505 156.81252,100.830158 C156.898111,100.755266 156.965869,100.717821 157.015797,100.717821 C157.072858,100.717821 157.129917,100.753483 157.186978,100.824808 L157.465146,101.274158 C157.194109,101.573725 156.849968,101.814445 156.432713,101.996326 C156.015458,102.178206 155.582162,102.269145 155.132811,102.269145 Z M170.089715,101.316953 C170.817236,101.316953 171.468072,101.190352 172.042243,100.937146 C172.616414,100.68394 173.103204,100.332667 173.502628,99.8833152 C173.902051,99.4339639 174.206963,98.9043793 174.417374,98.2945454 C174.627785,97.6847115 174.732988,97.0267426 174.732988,96.3206192 L174.732988,86.9591806 L175.824264,86.9591806 L175.824264,96.3206192 C175.824264,97.1551287 175.692314,97.9343492 175.428409,98.6583041 C175.164505,99.382259 174.784701,100.013481 174.288989,100.551989 C173.793276,101.090498 173.190583,101.513096 172.480894,101.819796 C171.771204,102.126496 170.974152,102.279843 170.089715,102.279843 C169.205277,102.279843 168.408226,102.126496 167.698536,101.819796 C166.988846,101.513096 166.386154,101.090498 165.890441,100.551989 C165.394728,100.013481 165.014925,99.382259 164.75102,98.6583041 C164.487115,97.9343492 164.355165,97.1551287 164.355165,96.3206192 L164.355165,86.9591806 L165.45714,86.9591806 L165.45714,96.3099204 C165.45714,97.0160439 165.562344,97.6740127 165.772754,98.2838466 C165.983165,98.8936805 166.286294,99.4232651 166.682151,99.8726164 C167.078008,100.321968 167.563015,100.675024 168.137186,100.931796 C168.711357,101.188569 169.362194,101.316953 170.089715,101.316953 C170.089715,101.316953 169.362194,101.316953 170.089715,101.316953 Z M185.538763,92.7686219 C185.488835,92.8684777 185.410378,92.9184049 185.30339,92.9184049 C185.224932,92.9184049 185.123294,92.8738271 184.998474,92.7846701 C184.873654,92.6955131 184.709608,92.5956587 184.50633,92.485104 C184.303052,92.3745494 184.053416,92.274695 183.757415,92.185538 C183.461414,92.096381 183.099442,92.0518032 182.671488,92.0518032 C182.28633,92.0518032 181.935057,92.1070797 181.617658,92.2176344 C181.300259,92.3281891 181.029225,92.4761875 180.80455,92.661634 C180.579874,92.8470806 180.405129,93.0628373 180.280309,93.3089106 C180.155489,93.554984 180.09308,93.8135354 180.09308,94.0845727 C180.09308,94.419803 180.17867,94.6979687 180.349851,94.9190781 C180.521033,95.1401874 180.745705,95.3291975 181.023875,95.4861138 C181.302045,95.6430301 181.617656,95.7785467 181.970718,95.8926677 C182.323779,96.0067887 182.685751,96.1209079 183.056644,96.2350289 C183.427538,96.3491498 183.78951,96.4757509 184.142571,96.6148358 C184.495633,96.7539207 184.811244,96.9268827 185.089414,97.133727 C185.367584,97.3405712 185.592256,97.5937733 185.763438,97.8933409 C185.934619,98.1929084 186.020208,98.5566635 186.020208,98.9846171 C186.020208,99.4482335 185.936402,99.879747 185.768787,100.27917 C185.601172,100.678594 185.358668,101.024518 185.041269,101.316953 C184.723871,101.609388 184.333369,101.841192 183.869752,102.012374 C183.406136,102.183555 182.878334,102.269145 182.286332,102.269145 C181.537413,102.269145 180.891926,102.149676 180.349851,101.910735 C179.807777,101.671795 179.32277,101.35975 178.894816,100.974591 L179.140888,100.610833 C179.176551,100.553772 179.21578,100.510978 179.258575,100.482447 C179.30137,100.453917 179.361996,100.439652 179.440454,100.439652 C179.533178,100.439652 179.647297,100.496712 179.782816,100.610833 C179.918334,100.724954 180.094863,100.847989 180.312406,100.979941 C180.529949,101.111893 180.800982,101.234928 181.125513,101.349049 C181.450045,101.46317 181.851245,101.52023 182.329127,101.52023 C182.778478,101.52023 183.174329,101.457821 183.516692,101.333001 C183.859055,101.208181 184.144353,101.038785 184.372595,100.824808 C184.600837,100.610832 184.773799,100.359413 184.891486,100.070544 C185.009174,99.7816753 185.068016,99.4767629 185.068016,99.1557977 C185.068016,98.7991697 184.982427,98.5031729 184.811246,98.2677984 C184.640064,98.0324239 184.415392,97.8327152 184.137222,97.6686663 C183.859052,97.5046174 183.543441,97.3655346 183.190379,97.2514136 C182.837318,97.1372927 182.473562,97.0231734 182.099103,96.9090525 C181.724644,96.7949315 181.360888,96.6701136 181.007827,96.5345949 C180.654765,96.3990763 180.339154,96.2278974 180.060984,96.0210531 C179.782814,95.8142089 179.558142,95.5627899 179.386961,95.2667887 C179.215779,94.9707874 179.13019,94.6016829 179.13019,94.1594642 C179.13019,93.7814385 179.212213,93.4176834 179.376262,93.0681879 C179.540311,92.7186925 179.773898,92.411997 180.077032,92.1480923 C180.380166,91.8841875 180.749271,91.6737802 181.184357,91.5168638 C181.619443,91.3599475 182.108016,91.2814905 182.650091,91.2814905 C183.299154,91.2814905 183.875099,91.3742124 184.377945,91.559659 C184.88079,91.7451055 185.342616,92.0304037 185.763438,92.4155619 C185.763438,92.4155619 185.342616,92.0304037 185.763438,92.4155619 L185.538763,92.7686219 Z M192.88883,91.2814905 C193.487965,91.2814905 194.042513,91.3849111 194.552491,91.5917553 C195.062469,91.7985996 195.504681,92.0999457 195.879141,92.4958028 C196.2536,92.8916599 196.546031,93.3784499 196.756441,93.9561873 C196.966852,94.5339246 197.072055,95.1972428 197.072055,95.9461616 C197.072055,96.103078 197.048875,96.2100648 197.002513,96.2671252 C196.956152,96.3241857 196.883044,96.3527155 196.783188,96.3527155 L189.09076,96.3527155 L189.09076,96.5559925 C189.09076,97.3548392 189.183482,98.0573859 189.368929,98.6636535 C189.554375,99.2699211 189.818276,99.7781084 190.160639,100.188231 C190.503002,100.598353 190.916684,100.906831 191.401698,101.113676 C191.886712,101.32052 192.428779,101.423941 193.027914,101.423941 C193.562856,101.423941 194.026465,101.365098 194.418756,101.247411 C194.811047,101.129723 195.140923,100.997773 195.408394,100.851555 C195.675865,100.705338 195.888055,100.573388 196.044972,100.4557 C196.201888,100.338013 196.316007,100.27917 196.387333,100.27917 C196.480056,100.27917 196.551381,100.314833 196.601309,100.386158 L196.879477,100.728519 C196.708296,100.942496 196.48184,101.142205 196.200104,101.327651 C195.918368,101.513098 195.60454,101.671795 195.258611,101.803747 C194.912682,101.9357 194.541794,102.040904 194.145937,102.119362 C193.75008,102.19782 193.352446,102.237048 192.953022,102.237048 C192.225501,102.237048 191.562183,102.110447 190.963048,101.857241 C190.363913,101.604036 189.850376,101.234931 189.422423,100.749917 C188.994469,100.264903 188.664593,99.6711261 188.432785,98.9685689 C188.200977,98.2660118 188.085074,97.4618276 188.085074,96.5559925 C188.085074,95.7928085 188.193844,95.0884788 188.411387,94.4429821 C188.62893,93.7974854 188.942758,93.241154 189.352881,92.7739713 C189.763003,92.3067886 190.265841,91.9412504 190.86141,91.6773456 C191.456978,91.4134409 192.132778,91.2814905 192.88883,91.2814905 C192.88883,91.2814905 192.132778,91.2814905 192.88883,91.2814905 Z M192.899528,92.0411044 C192.350321,92.0411044 191.858182,92.1266938 191.423096,92.2978753 C190.98801,92.4690567 190.611773,92.7151264 190.294374,93.0360916 C189.976975,93.3570568 189.720207,93.7422093 189.524061,94.1915606 C189.327916,94.6409119 189.197748,95.1437498 189.133555,95.7000895 L196.15196,95.7000895 C196.15196,95.1294847 196.073503,94.6177312 195.916586,94.1648136 C195.75967,93.711896 195.538564,93.3285267 195.253262,93.014694 C194.967959,92.7008614 194.625601,92.4601411 194.226178,92.2925259 C193.826755,92.1249107 193.384543,92.0411044 192.899528,92.0411044 Z M199.810945,102.097964 L199.810945,91.4526711 L200.345884,91.4526711 C200.467138,91.4526711 200.55451,91.4776347 200.608004,91.5275626 C200.661499,91.5774905 200.691812,91.66308 200.698944,91.7843335 L200.784534,94.0310788 C201.126897,93.168039 201.583374,92.492239 202.153979,92.0036586 C202.724584,91.5150783 203.427131,91.2707917 204.26164,91.2707917 C204.582605,91.2707917 204.878602,91.3046709 205.14964,91.3724302 C205.420677,91.4401895 205.677445,91.5382608 205.919952,91.6666468 L205.780868,92.3727668 C205.75947,92.4868878 205.688146,92.5439474 205.566892,92.5439474 C205.524097,92.5439474 205.463471,92.5296825 205.385013,92.5011522 C205.306555,92.472622 205.208483,92.4405259 205.090796,92.4048631 C204.973109,92.3692003 204.828677,92.3371043 204.657495,92.3085741 C204.486314,92.2800438 204.290171,92.2657789 204.069062,92.2657789 C203.263083,92.2657789 202.601548,92.5154148 202.084437,93.014694 C201.567326,93.5139732 201.148295,94.234351 200.82733,95.175849 L200.82733,102.097964 L199.810945,102.097964 Z M219.453918,101.381145 C219.974595,101.381145 220.448903,101.354399 220.876856,101.300904 C221.30481,101.24741 221.702444,101.16717 222.069771,101.060182 C222.437098,100.953193 222.786588,100.823026 223.118252,100.669676 C223.449916,100.516326 223.783358,100.343364 224.118589,100.150785 L224.118589,96.0745471 L221.208519,96.0745471 C221.130061,96.0745471 221.064085,96.0495835 221.010591,95.9996556 C220.957097,95.9497276 220.93035,95.892668 220.93035,95.828475 L220.93035,95.2293429 L225.113576,95.2293429 L225.113576,100.610833 C224.73555,100.874737 224.343265,101.110108 223.936709,101.316953 C223.530153,101.523797 223.095074,101.696759 222.631457,101.835844 C222.167841,101.974929 221.668569,102.081916 221.133627,102.156807 C220.598685,102.231699 220.013824,102.269145 219.379026,102.269145 C218.287744,102.269145 217.290984,102.085484 216.388715,101.718157 C215.486446,101.35083 214.712575,100.830161 214.067078,100.156134 C213.421582,99.4821073 212.920527,98.6672246 212.563899,97.7114615 C212.207271,96.7556984 212.02896,95.6929629 212.02896,94.523223 C212.02896,93.3534831 212.207271,92.2925306 212.563899,91.3403338 C212.920527,90.388137 213.426931,89.5750374 214.083127,88.9010104 C214.739322,88.2269835 215.536374,87.7063144 216.474305,87.3389875 C217.412237,86.9716607 218.462491,86.788 219.625098,86.788 C220.202836,86.788 220.735987,86.8272285 221.224567,86.9056867 C221.713147,86.9841448 222.167841,87.1000472 222.588662,87.2533972 C223.009483,87.4067473 223.401768,87.5957573 223.765529,87.8204329 C224.129289,88.0451086 224.47878,88.30366 224.81401,88.596095 L224.525143,89.0668416 C224.46095,89.17383 224.371794,89.2273234 224.257673,89.2273234 C224.19348,89.2273234 224.132854,89.2130585 224.075794,89.1845283 C223.968805,89.1417329 223.813674,89.0418786 223.610396,88.8849622 C223.407118,88.7280459 223.132519,88.5639995 222.78659,88.392818 C222.440661,88.2216366 222.007364,88.0682888 221.486687,87.9327702 C220.96601,87.7972516 220.334788,87.7294933 219.593002,87.7294933 C218.608709,87.7294933 217.720718,87.8864072 216.929004,88.2002399 C216.13729,88.5140725 215.46149,88.9634171 214.901584,89.548287 C214.341678,90.133157 213.910164,90.8464023 213.607031,91.6880444 C213.303897,92.5296865 213.152332,93.4747366 213.152332,94.523223 C213.152332,95.593107 213.30568,96.552422 213.61238,97.4011967 C213.91908,98.2499713 214.34881,98.968566 214.901584,99.5570022 C215.454357,100.145438 216.117675,100.596566 216.891558,100.910399 C217.665441,101.224231 218.519552,101.381145 219.453918,101.381145 C219.453918,101.381145 218.519552,101.381145 219.453918,101.381145 Z M228.451597,102.097964 L228.451597,91.4526711 L228.986537,91.4526711 C229.10779,91.4526711 229.195163,91.4776347 229.248657,91.5275626 C229.302151,91.5774905 229.332464,91.66308 229.339597,91.7843335 L229.425187,94.0310788 C229.76755,93.168039 230.224027,92.492239 230.794632,92.0036586 C231.365237,91.5150783 232.067783,91.2707917 232.902293,91.2707917 C233.223258,91.2707917 233.519255,91.3046709 233.790292,91.3724302 C234.061329,91.4401895 234.318098,91.5382608 234.560605,91.6666468 L234.421521,92.3727668 C234.400123,92.4868878 234.328798,92.5439474 234.207545,92.5439474 C234.164749,92.5439474 234.104124,92.5296825 234.025665,92.5011522 C233.947207,92.472622 233.849136,92.4405259 233.731449,92.4048631 C233.613762,92.3692003 233.469329,92.3371043 233.298148,92.3085741 C233.126967,92.2800438 232.930824,92.2657789 232.709715,92.2657789 C231.903735,92.2657789 231.2422,92.5154148 230.72509,93.014694 C230.207979,93.5139732 229.788947,94.234351 229.467982,95.175849 L229.467982,102.097964 L228.451597,102.097964 Z M241.001275,91.2814905 C241.764459,91.2814905 242.447391,91.4116578 243.050092,91.6719962 C243.652794,91.9323347 244.160981,92.3014392 244.574669,92.7793207 C244.988358,93.2572022 245.303969,93.8331478 245.521512,94.5071748 C245.739055,95.1812017 245.847825,95.9354587 245.847825,96.7699682 C245.847825,97.6044778 245.739055,98.3569516 245.521512,99.0274123 C245.303969,99.6978729 244.988358,100.272035 244.574669,100.749917 C244.160981,101.227799 243.652794,101.59512 243.050092,101.851892 C242.447391,102.108664 241.764459,102.237048 241.001275,102.237048 C240.238091,102.237048 239.555158,102.108664 238.952457,101.851892 C238.349756,101.59512 237.839785,101.227799 237.42253,100.749917 C237.005276,100.272035 236.687881,99.6978729 236.470338,99.0274123 C236.252795,98.3569516 236.144025,97.6044778 236.144025,96.7699682 C236.144025,95.9354587 236.252795,95.1812017 236.470338,94.5071748 C236.687881,93.8331478 237.005276,93.2572022 237.42253,92.7793207 C237.839785,92.3014392 238.349756,91.9323347 238.952457,91.6719962 C239.555158,91.4116578 240.238091,91.2814905 241.001275,91.2814905 C241.001275,91.2814905 240.238091,91.2814905 241.001275,91.2814905 Z M241.001275,101.434639 C241.636072,101.434639 242.190621,101.325869 242.664936,101.108326 C243.139251,100.890783 243.535102,100.578738 243.852501,100.172182 C244.1699,99.7656265 244.407054,99.2752704 244.563971,98.7010993 C244.720887,98.1269282 244.799344,97.4832243 244.799344,96.7699682 C244.799344,96.0638448 244.720887,95.421924 244.563971,94.8441866 C244.407054,94.2664492 244.1699,93.7725268 243.852501,93.3624046 C243.535102,92.9522824 243.139251,92.6366713 242.664936,92.4155619 C242.190621,92.1944526 241.636072,92.0838995 241.001275,92.0838995 C240.366477,92.0838995 239.811928,92.1944526 239.337613,92.4155619 C238.863298,92.6366713 238.467447,92.9522824 238.150048,93.3624046 C237.832649,93.7725268 237.593712,94.2664492 237.433229,94.8441866 C237.272747,95.421924 237.192506,96.0638448 237.192506,96.7699682 C237.192506,97.4832243 237.272747,98.1269282 237.433229,98.7010993 C237.593712,99.2752704 237.832649,99.7656265 238.150048,100.172182 C238.467447,100.578738 238.863298,100.890783 239.337613,101.108326 C239.811928,101.325869 240.366477,101.434639 241.001275,101.434639 C241.001275,101.434639 240.366477,101.434639 241.001275,101.434639 Z M249.282136,91.4526711 L249.282136,98.2570996 C249.282136,99.255658 249.510374,100.038445 249.966858,100.605483 C250.423342,101.172522 251.118756,101.456037 252.053121,101.456037 C252.74498,101.456037 253.390467,101.279509 253.989602,100.926447 C254.588737,100.573385 255.127237,100.083029 255.605119,99.4553637 L255.605119,91.4526711 L256.632202,91.4526711 L256.632202,102.097964 L256.065167,102.097964 C255.865455,102.097964 255.762034,102.005242 255.754902,101.819796 L255.658613,100.236375 C255.166466,100.849775 254.597653,101.341915 253.952156,101.712808 C253.306659,102.083701 252.588065,102.269145 251.796351,102.269145 C251.204348,102.269145 250.687245,102.176423 250.245026,101.990976 C249.802808,101.80553 249.435486,101.538063 249.143051,101.188567 C248.850616,100.839072 248.62951,100.418257 248.479727,99.9261104 C248.329943,99.4339637 248.255052,98.8776324 248.255052,98.2570996 L248.255052,91.4526711 L249.282136,91.4526711 Z M260.098609,105.863937 L260.098609,91.4526711 L260.654946,91.4526711 C260.747669,91.4526711 260.82256,91.4722854 260.879621,91.5115144 C260.936681,91.5507435 260.968777,91.6202849 260.97591,91.7201408 L261.072199,93.367754 C261.542948,92.7258235 262.09393,92.2158531 262.725161,91.8378274 C263.356393,91.4598017 264.064289,91.2707917 264.848871,91.2707917 C266.161262,91.2707917 267.181203,91.7237025 267.908724,92.6295377 C268.636245,93.5353728 269,94.8941052 269,96.7057755 C269,97.4832246 268.898363,98.2089517 268.695085,98.8829786 C268.491807,99.5570056 268.194027,100.141867 267.801736,100.63758 C267.409445,101.133293 266.926221,101.523794 266.35205,101.809097 C265.777879,102.094399 265.116344,102.237048 264.367425,102.237048 C263.639904,102.237048 263.012248,102.105098 262.484439,101.841193 C261.956629,101.577289 261.500152,101.185004 261.114994,100.664327 L261.114994,105.863937 L260.098609,105.863937 Z M264.560003,92.0945983 C263.85388,92.0945983 263.213742,92.278259 262.639571,92.6455859 C262.0654,93.0129127 261.557213,93.5246662 261.114994,94.1808618 L261.114994,99.7656286 C261.52155,100.379029 261.972678,100.810542 262.468391,101.060182 C262.964104,101.309821 263.52935,101.434639 264.164148,101.434639 C264.791814,101.434639 265.341013,101.32052 265.811761,101.092278 C266.28251,100.864036 266.676579,100.541293 266.993977,100.124038 C267.311376,99.7067832 267.550314,99.2075114 267.710796,98.6262078 C267.871279,98.0449041 267.951519,97.4047664 267.951519,96.7057755 C267.951519,95.1223471 267.660871,93.9579741 267.079568,93.2126216 C266.498264,92.467269 265.658418,92.0945983 264.560003,92.0945983 Z M264.560003,92.0945983" id="Lima-JavaScript-User" fill="#000000" sketch:type="MSShapeGroup"></path>
    </g>
</svg>