<?xml version="1.0" encoding="UTF-8" standalone="no"?>
<svg width="240px" height="240px" viewBox="0 0 240 240" version="1.1" xmlns="http://www.w3.org/2000/svg" xmlns:xlink="http://www.w3.org/1999/xlink" xmlns:sketch="http://www.bohemiancoding.com/sketch/ns">
    <title>limajs-sq@2x</title>
    <description>Created with Sketch (http://www.bohemiancoding.com/sketch)</description>
    <defs></defs>
    <g id="Page-1" stroke="none" stroke-width="1" fill="none" fill-rule="evenodd" sketch:type="MSPage">
        <g id="Group" sketch:type="MSLayerGroup">
            <path d="M134.722633,0 L0,0 L0,240 L240,240 L240,0 L134.722633,0 Z" id="Rectangle-1" stroke="#979797" fill="#FAE448" sketch:type="MSShapeGroup"></path>
            <path d="M123,62 C153.061597,62 216.4564,68.1283738 216.4564,68.1283738 L224.146477,75.9944167 L225.433062,93.3696123 L223.553895,105.271023 L227,117.196105 L224.433351,128.834339 L224.996232,156.627968 L216.4564,170.570952 C216.4564,170.570952 170.273372,177.251658 123,176.992659 C75.726628,176.733661 29.4204526,170.20543 29.4204526,170.20543 L22.9546536,163.217119 L19.9692849,153.94747 L22.5837463,131.109629 L19,118.219567 L22.2128391,109.307783 L21.3391787,86.710838 C21.3391787,86.710838 20.2355919,74.5159777 21.3391787,71.7446093 C22.7021665,68.321823 30.1159037,68.1283738 30.1159037,68.1283738 C58.1972242,62.3148266 92.5248924,62 123,62 Z" id="Path-40" fill="#FBE448" sketch:type="MSShapeGroup"></path>
            <path d="M51.9379043,156.142756 L91,156.142756 L91,161 L46,161 L46,82 L51.9379043,82 L51.9379043,82 L51.9379043,156.142756 L51.9379043,156.142756 Z" id="{LimaJS}" fill="#000000" sketch:type="MSShapeGroup"></path>
            <path d="M16.6111111,130.02854 C16.6111111,127.677266 15.9629694,125.745891 14.6666667,124.234358 C13.3703639,122.722824 11.4814939,121.967069 9,121.967069 L9,115.976948 C11.4814939,115.976948 13.3703639,115.230523 14.6666667,113.737651 C15.9629694,112.244778 16.6111111,110.304073 16.6111111,107.915477 C16.6111111,106.049387 16.4629644,104.201985 16.1666667,102.373216 C15.8703689,100.544447 15.5462981,98.7157062 15.1944444,96.8869374 C14.8425908,95.0581687 14.51852,93.2107667 14.2222222,91.3446762 C13.9259244,89.4785856 13.7777778,87.5752018 13.7777778,85.6344676 C13.7777778,83.0592626 14.1574036,80.6893632 14.9166667,78.5246981 C15.6759297,76.3600331 16.8240664,74.4939705 18.3611111,72.9264544 C19.8981558,71.3589384 21.8055442,70.1459977 24.0833333,69.287596 C26.3611225,68.4291944 29.0185033,68 32.0555556,68 L35,68 L35,72.4226125 C35,73.1690487 34.7407433,73.7102069 34.2222222,74.0461032 C33.7037011,74.3819995 33.2222244,74.5499451 32.7777778,74.5499451 L31.6666667,74.5499451 C28.8148006,74.5499451 26.5648231,75.4923067 24.9166667,77.3770582 C23.2685103,79.2618096 22.4444444,81.808985 22.4444444,85.0186608 C22.4444444,87.1086822 22.5740728,89.1240298 22.8333333,91.064764 C23.0925939,93.0054982 23.3888872,94.8995517 23.7222222,96.7469813 C24.0555572,98.594411 24.3518506,100.432483 24.6111111,102.261251 C24.8703717,104.09002 25,105.937422 25,107.803513 C25,109.221741 24.7962983,110.537316 24.3888889,111.750274 C23.9814794,112.963233 23.3981519,114.04555 22.6388889,114.997256 C21.8796258,115.948962 20.9907458,116.770029 19.9722222,117.460483 C18.9536986,118.150936 17.8333394,118.664104 16.6111111,119 C17.8333394,119.335896 18.9536986,119.849064 19.9722222,120.539517 C20.9907458,121.229971 21.8796258,122.060368 22.6388889,123.030735 C23.3981519,124.001103 23.9814794,125.083419 24.3888889,126.277717 C24.7962983,127.472015 25,128.759598 25,130.140505 C25,132.006595 24.8703717,133.853997 24.6111111,135.682766 C24.3518506,137.511535 24.0555572,139.349607 23.7222222,141.197036 C23.3888872,143.044466 23.0925939,144.938519 22.8333333,146.879254 C22.5740728,148.819988 22.4444444,150.835335 22.4444444,152.925357 C22.4444444,156.172354 23.2685103,158.72886 24.9166667,160.594951 C26.5648231,162.461041 28.8148006,163.394072 31.6666667,163.394072 L32.7777778,163.394072 C33.2222244,163.394072 33.7037011,163.562018 34.2222222,163.897914 C34.7407433,164.233811 35,164.774969 35,165.521405 L35,170 L32.0555556,170 C29.0185033,170 26.3611225,169.561475 24.0833333,168.684413 C21.8055442,167.80735 19.8981558,166.585079 18.3611111,165.017563 C16.8240664,163.450047 15.6759297,161.583984 14.9166667,159.419319 C14.1574036,157.254654 13.7777778,154.884755 13.7777778,152.30955 C13.7777778,150.368816 13.9259244,148.474762 14.2222222,146.627333 C14.51852,144.779903 14.8425908,142.932501 15.1944444,141.085071 C15.5462981,139.237642 15.8703689,137.39957 16.1666667,135.570801 C16.4629644,133.742033 16.6111111,131.894631 16.6111111,130.02854 C16.6111111,130.02854 16.6111111,131.894631 16.6111111,130.02854 L16.6111111,130.02854 L16.6111111,130.02854 Z" id="Path" fill="#000000" sketch:type="MSShapeGroup"></path>
            <path d="M228.833333,135.570801 C229.129631,137.39957 229.453702,139.237642 229.805556,141.085071 C230.157409,142.932501 230.48148,144.779903 230.777778,146.627333 C231.074076,148.474762 231.222222,150.368816 231.222222,152.30955 C231.222222,154.884755 230.833337,157.254654 230.055556,159.419319 C229.277774,161.583984 228.129637,163.450047 226.611111,165.017563 C225.092585,166.585079 223.194456,167.80735 220.916667,168.684413 C218.638878,169.561475 215.981497,170 212.944444,170 L210,170 L210,165.521405 C210,164.774969 210.259257,164.233811 210.777778,163.897914 C211.296299,163.562018 211.777776,163.394072 212.222222,163.394072 L213.333333,163.394072 C216.185199,163.394072 218.435177,162.461041 220.083333,160.594951 C221.73149,158.72886 222.555556,156.172354 222.555556,152.925357 C222.555556,150.835335 222.425927,148.819988 222.166667,146.879254 C221.907406,144.938519 221.611113,143.044466 221.277778,141.197036 C220.944443,139.349607 220.648149,137.511535 220.388889,135.682766 C220.129628,133.853997 220,132.006595 220,130.140505 C220,128.759598 220.203702,127.472015 220.611111,126.277717 C221.018521,125.083419 221.601848,124.001103 222.361111,123.030735 C223.120374,122.060368 224.009254,121.229971 225.027778,120.539517 C226.046301,119.849064 227.166661,119.335896 228.388889,119 C227.166661,118.664104 226.046301,118.150936 225.027778,117.460483 C224.009254,116.770029 223.120374,115.948962 222.361111,114.997256 C221.601848,114.04555 221.018521,112.963233 220.611111,111.750274 C220.203702,110.537316 220,109.221741 220,107.803513 C220,105.937422 220.129628,104.09002 220.388889,102.261251 C220.648149,100.432483 220.944443,98.594411 221.277778,96.7469813 C221.611113,94.8995517 221.907406,93.0054982 222.166667,91.064764 C222.425927,89.1240298 222.555556,87.1086822 222.555556,85.0186608 C222.555556,81.808985 221.73149,79.2618096 220.083333,77.3770582 C218.435177,75.4923067 216.185199,74.5499451 213.333333,74.5499451 L212.222222,74.5499451 C211.777776,74.5499451 211.296299,74.3819995 210.777778,74.0461032 C210.259257,73.7102069 210,73.1690487 210,72.4226125 L210,68 L212.944444,68 C215.981497,68 218.638878,68.4291944 220.916667,69.287596 C223.194456,70.1459977 225.092585,71.3589384 226.611111,72.9264544 C228.129637,74.4939705 229.277774,76.3600331 230.055556,78.5246981 C230.833337,80.6893632 231.222222,83.0592626 231.222222,85.6344676 C231.222222,87.5752018 231.074076,89.4785856 230.777778,91.3446762 C230.48148,93.2107667 230.157409,95.0581687 229.805556,96.8869374 C229.453702,98.7157062 229.129631,100.544447 228.833333,102.373216 C228.537036,104.201985 228.388889,106.049387 228.388889,107.915477 C228.388889,110.304073 229.037031,112.244778 230.333333,113.737651 C231.629636,115.230523 233.518506,115.976948 236,115.976948 L236,121.967069 C233.518506,121.967069 231.629636,122.722824 230.333333,124.234358 C229.037031,125.745891 228.388889,127.677266 228.388889,130.02854 C228.388889,131.894631 228.537036,133.742033 228.833333,135.570801 Z" id="Path" fill="#000000" sketch:type="MSShapeGroup"></path>
            <path d="M143,131.716225 C143,136.243969 142.438311,140.363412 141.314917,144.074678 C140.191523,147.785943 138.497249,150.968305 136.232044,153.62186 C133.96684,156.275415 131.121564,158.335136 127.696133,159.801086 C124.270701,161.267036 120.237592,162 115.596685,162 C113.497227,162 111.425425,161.888664 109.381215,161.665988 C107.337006,161.443312 105.209956,161.072191 103,160.552614 L103.994475,149.585879 C104.06814,148.62095 104.445669,147.841596 105.127072,147.247794 C105.808475,146.653991 106.7569,146.357094 107.972376,146.357094 C108.59853,146.357094 109.372003,146.459153 110.292818,146.663272 C111.213633,146.867392 112.318594,146.96945 113.607735,146.96945 C115.412532,146.96945 116.987102,146.718943 118.331492,146.217923 C119.675881,145.716902 120.790051,144.88188 121.674033,143.712831 C122.558015,142.543782 123.220992,141.012908 123.662983,139.120163 C124.104975,137.227418 124.325967,134.889355 124.325967,132.105906 L124.325967,80 L143,80 L143,80 L143,131.716225 L143,131.716225 Z" id="Path" fill="#000000" sketch:type="MSShapeGroup"></path>
            <path d="M202.199609,96.3915379 C201.641876,97.2834161 201.056265,97.9523148 200.442759,98.3982539 C199.829253,98.844193 199.039144,99.0671592 198.072407,99.0671592 C197.217217,99.0671592 196.296972,98.7977417 195.311644,98.2588986 C194.326316,97.7200555 193.210867,97.1161887 191.965264,96.4472801 C190.719661,95.7783714 189.297464,95.1745046 187.69863,94.6356615 C186.099796,94.0968184 184.277897,93.8274009 182.232877,93.8274009 C178.700569,93.8274009 176.06997,94.5799119 174.340998,96.0849563 C172.612027,97.5900008 171.747554,99.6245674 171.747554,102.188717 C171.747554,103.823827 172.268097,105.180205 173.309198,106.257891 C174.350299,107.335577 175.716723,108.264603 177.408513,109.044997 C179.100302,109.82539 181.033746,110.54074 183.208904,111.191068 C185.384062,111.841396 187.605664,112.566036 189.873777,113.36501 C192.14189,114.163984 194.363492,115.1023 196.53865,116.179987 C198.713807,117.257673 200.647252,118.632631 202.339041,120.304903 C204.03083,121.977174 205.397255,124.011741 206.438356,126.408664 C207.479457,128.805586 208,131.694857 208,135.076561 C208,138.829882 207.349322,142.3416 206.047945,145.61182 C204.746569,148.88204 202.859601,151.734149 200.386986,154.168234 C197.914371,156.602318 194.865478,158.516111 191.240215,159.909671 C187.614953,161.303231 183.497088,162 178.886497,162 C176.358109,162 173.783281,161.739873 171.161937,161.21961 C168.540594,160.699348 166.002948,159.965418 163.548924,159.017797 C161.0949,158.070177 158.789639,156.946055 156.633072,155.6454 C154.476506,154.344744 152.598834,152.895464 151,151.297515 L156.577299,142.490262 C156.986303,141.821353 157.562619,141.282518 158.306262,140.873741 C159.049906,140.464963 159.849311,140.260578 160.704501,140.260578 C161.819966,140.260578 162.944711,140.613607 164.078767,141.319678 C165.212824,142.025748 166.49559,142.80613 167.927104,143.660846 C169.358618,144.515563 171.003905,145.295945 172.863014,146.002015 C174.722123,146.708085 176.915839,147.061115 179.444227,147.061115 C182.864988,147.061115 185.523474,146.308604 187.419765,144.803559 C189.316056,143.298515 190.264188,140.910919 190.264188,137.640698 C190.264188,135.745457 189.743645,134.203274 188.702544,133.014103 C187.661443,131.824932 186.295018,130.840165 184.603229,130.059772 C182.91144,129.279378 180.987291,128.591899 178.830724,127.997314 C176.674158,127.402728 174.461851,126.74312 172.193738,126.018469 C169.925625,125.293818 167.713318,124.401953 165.556751,123.342848 C163.400185,122.283742 161.476036,120.890203 159.784247,119.162189 C158.092457,117.434175 156.726033,115.278835 155.684932,112.696105 C154.64383,110.113374 154.123288,106.926815 154.123288,103.136333 C154.123288,100.089083 154.736784,97.1161999 155.963796,94.2175957 C157.190808,91.3189916 158.994117,88.7362997 161.373777,86.4694426 C163.753437,84.2025855 166.672194,82.3909851 170.130137,81.034587 C173.58808,79.6781889 177.547923,79 182.009785,79 C184.500991,79 186.927092,79.1950954 189.28816,79.5852921 C191.649229,79.9754889 193.889422,80.5514849 196.008806,81.3132975 C198.128191,82.0751101 200.108112,82.9855555 201.94863,84.0446608 C203.789148,85.1037662 205.434435,86.3022096 206.88454,87.6400269 C206.88454,87.6400269 205.434435,86.3022096 206.88454,87.6400269 L202.199609,96.3915379 L202.199609,96.3915379 Z" id="Path" fill="#000000" sketch:type="MSShapeGroup"></path>
        </g>
    </g>
</svg>